# xmcd CD database file
#
# Track frame offsets:
#	150
#	20843
#	55569
#	78024
#	96334
#	125642
#	148418
#	187351
#	208352
#
# Disc length: 3066 seconds
#
# Revision: 0
# Processed by: cddbd v1.5.2PL0 Copyright (c) Steve Scherf et al.
# Submitted via: CDex 1.70beta2
#
DISCID=8c0bf809
DTITLE=barT feat. Jim Beard - barT feat. Jim Beard
DYEAR=2005
DGENRE=Jazz
TTITLE0=Dr. Tom
TTITLE1=Go Round
TTITLE2=Silly
TTITLE3=Pari Bar
TTITLE4=Bornholm
TTITLE5=Nook
TTITLE6=In the Hat
TTITLE7=Vesperbro Bodega
TTITLE8=Giphini's Song
EXTD=YEAR: 2005
EXTT0=
EXTT1=
EXTT2=
EXTT3=
EXTT4=
EXTT5=
EXTT6=
EXTT7=
EXTT8=
PLAYORDER=
